<svg width="256" height="257" viewBox="0 0 256 257" fill="none" xmlns="http://www.w3.org/2000/svg">
<g clip-path="url(#clip0_41_755)">
<g filter="url(#filter0_i_41_755)">
<path d="M212.572 247.75C218.74 247.75 223.605 242.504 223.142 236.354L211.938 87.5537C211.522 82.0239 206.914 77.7496 201.368 77.7496L54.6319 77.7496C49.0864 77.7496 44.4782 82.0239 44.0618 87.5538L32.858 236.354C32.395 242.504 37.2604 247.75 43.4282 247.75L212.572 247.75Z" fill="#884DCF"/>
</g>
<path d="M212.572 251.75C221.067 251.749 227.769 244.524 227.131 236.053L215.927 87.2535L215.896 86.898C215.155 79.4545 208.887 73.7496 201.368 73.7496L54.6318 73.7496C47.113 73.7496 40.8454 79.4545 40.1045 86.898L40.0732 87.2535L28.8691 236.053C28.2313 244.524 34.9327 251.749 43.4277 251.75L212.572 251.75Z" stroke="#0B1929" stroke-width="8"/>
<g filter="url(#filter1_i_41_755)">
<path d="M169.296 241.514C185.777 241.514 198.693 227.351 197.178 210.94L192.747 162.94C191.417 148.535 179.332 137.514 164.866 137.514L91.1344 137.514C76.6676 137.514 64.5827 148.535 63.253 162.94L58.8222 210.94C57.3074 227.351 70.2233 241.514 86.7037 241.514L169.296 241.514Z" fill="#BED7EA"/>
</g>
<path d="M169.296 237.514C183.201 237.514 194.147 225.751 193.247 211.966L193.194 211.308L188.764 163.308C187.624 150.96 177.265 141.514 164.865 141.514L91.1348 141.514C78.9283 141.514 68.6995 150.668 67.2959 162.732L67.2363 163.308L62.8057 211.308C61.5073 225.374 72.5781 237.514 86.7041 237.514L169.296 237.514Z" stroke="#0B1929" stroke-width="8"/>
<g filter="url(#filter2_i_41_755)">
<path d="M226.207 256.75C244.084 256.75 257.382 240.225 253.559 222.762L248.086 197.762C245.272 184.91 233.89 175.75 220.734 175.75L35.2665 175.75C22.11 175.75 10.728 184.91 7.91429 197.762L2.44104 222.762C-1.3822 240.225 11.9163 256.75 29.7932 256.75L226.207 256.75Z" fill="#BED7EA"/>
</g>
<path d="M226.207 252.75C241.291 252.75 252.571 239.025 249.794 224.318L249.651 223.617L244.179 198.617C241.767 187.601 232.01 179.75 220.733 179.75L35.2666 179.75C24.1657 179.75 14.5389 187.358 11.9404 198.104L11.8213 198.617L6.34863 223.617C3.07159 238.586 14.47 252.75 29.793 252.75L226.207 252.75Z" stroke="#0B1929" stroke-width="8"/>
<g filter="url(#filter3_i_41_755)">
<path d="M191.882 256.75C208.864 256.75 221.936 241.755 219.621 224.932L214.528 187.932C212.621 174.074 200.779 163.75 186.79 163.75L69.2102 163.75C55.2215 163.75 43.379 174.074 41.4717 187.932L36.3792 224.932C34.0638 241.755 47.1361 256.75 64.1177 256.75L191.882 256.75Z" fill="#FF4E51"/>
</g>
<path d="M191.882 252.75C206.21 252.75 217.292 240.296 215.741 226.152L215.658 225.478L210.565 188.478C208.931 176.599 198.78 167.75 186.79 167.75L69.21 167.75C57.4072 167.75 47.3874 176.325 45.5176 187.923L45.4346 188.478L40.3418 225.478C38.3571 239.897 49.5625 252.75 64.1182 252.75L191.882 252.75Z" stroke="#0B1929" stroke-width="8"/>
<rect x="-4" y="4" width="34" height="28" rx="14" transform="matrix(1 0 0 -1 115 239.75)" fill="white" stroke="#0B1929" stroke-width="8"/>
<rect x="-4" y="4" width="34" height="28" rx="14" transform="matrix(1 0 0 -1 166 239.75)" fill="white" stroke="#0B1929" stroke-width="8"/>
<rect x="-4" y="4" width="34" height="28" rx="14" transform="matrix(1 0 0 -1 65 239.75)" fill="white" stroke="#0B1929" stroke-width="8"/>
</g>
<defs>
<filter id="filter0_i_41_755" x="24.8271" y="69.7496" width="206.346" height="186" filterUnits="userSpaceOnUse" color-interpolation-filters="sRGB">
<feFlood flood-opacity="0" result="BackgroundImageFix"/>
<feBlend mode="normal" in="SourceGraphic" in2="BackgroundImageFix" result="shape"/>
<feColorMatrix in="SourceAlpha" type="matrix" values="0 0 0 0 0 0 0 0 0 0 0 0 0 0 0 0 0 0 127 0" result="hardAlpha"/>
<feOffset dy="20"/>
<feComposite in2="hardAlpha" operator="arithmetic" k2="-1" k3="1"/>
<feColorMatrix type="matrix" values="0 0 0 0 1 0 0 0 0 1 0 0 0 0 1 0 0 0 1 0"/>
<feBlend mode="normal" in2="shape" result="effect1_innerShadow_41_755"/>
</filter>
<filter id="filter1_i_41_755" x="58.7012" y="137.514" width="138.598" height="104" filterUnits="userSpaceOnUse" color-interpolation-filters="sRGB">
<feFlood flood-opacity="0" result="BackgroundImageFix"/>
<feBlend mode="normal" in="SourceGraphic" in2="BackgroundImageFix" result="shape"/>
<feColorMatrix in="SourceAlpha" type="matrix" values="0 0 0 0 0 0 0 0 0 0 0 0 0 0 0 0 0 0 127 0" result="hardAlpha"/>
<feOffset dy="-24"/>
<feComposite in2="hardAlpha" operator="arithmetic" k2="-1" k3="1"/>
<feColorMatrix type="matrix" values="0 0 0 0 0 0 0 0 0 0 0 0 0 0 0 0 0 0 0.2 0"/>
<feBlend mode="normal" in2="shape" result="effect1_innerShadow_41_755"/>
</filter>
<filter id="filter2_i_41_755" x="1.78223" y="175.75" width="252.436" height="81" filterUnits="userSpaceOnUse" color-interpolation-filters="sRGB">
<feFlood flood-opacity="0" result="BackgroundImageFix"/>
<feBlend mode="normal" in="SourceGraphic" in2="BackgroundImageFix" result="shape"/>
<feColorMatrix in="SourceAlpha" type="matrix" values="0 0 0 0 0 0 0 0 0 0 0 0 0 0 0 0 0 0 127 0" result="hardAlpha"/>
<feOffset dy="-24"/>
<feComposite in2="hardAlpha" operator="arithmetic" k2="-1" k3="1"/>
<feColorMatrix type="matrix" values="0 0 0 0 0 0 0 0 0 0 0 0 0 0 0 0 0 0 0.2 0"/>
<feBlend mode="normal" in2="shape" result="effect1_innerShadow_41_755"/>
</filter>
<filter id="filter3_i_41_755" x="36.1128" y="163.75" width="183.774" height="93" filterUnits="userSpaceOnUse" color-interpolation-filters="sRGB">
<feFlood flood-opacity="0" result="BackgroundImageFix"/>
<feBlend mode="normal" in="SourceGraphic" in2="BackgroundImageFix" result="shape"/>
<feColorMatrix in="SourceAlpha" type="matrix" values="0 0 0 0 0 0 0 0 0 0 0 0 0 0 0 0 0 0 127 0" result="hardAlpha"/>
<feOffset dy="-24"/>
<feComposite in2="hardAlpha" operator="arithmetic" k2="-1" k3="1"/>
<feColorMatrix type="matrix" values="0 0 0 0 0 0 0 0 0 0 0 0 0 0 0 0 0 0 0.2 0"/>
<feBlend mode="normal" in2="shape" result="effect1_innerShadow_41_755"/>
</filter>
<clipPath id="clip0_41_755">
<rect width="256" height="256" fill="white" transform="translate(0 0.75)"/>
</clipPath>
</defs>
</svg>
