<svg width="256" height="257" viewBox="0 0 256 257" fill="none" xmlns="http://www.w3.org/2000/svg">
<g clip-path="url(#clip0_41_669)">
<g filter="url(#filter0_i_41_669)">
<rect x="126.093" y="62.5" width="119.907" height="194" rx="28" fill="#FEBC38"/>
</g>
<rect x="130.093" y="66.5" width="111.907" height="186" rx="24" stroke="#0B1929" stroke-width="8"/>
<g filter="url(#filter1_i_41_669)">
<rect x="10" y="62.5" width="119.907" height="194" rx="28" fill="#FEBC38"/>
</g>
<rect x="14" y="66.5" width="111.907" height="186" rx="24" stroke="#0B1929" stroke-width="8"/>
<g filter="url(#filter2_i_41_669)">
<rect y="198.5" width="256" height="58" rx="28" fill="#FF4E51"/>
</g>
<rect x="4" y="202.5" width="248" height="50" rx="24" stroke="#0B1929" stroke-width="8"/>
<rect x="-4" y="4" width="34" height="28" rx="14" transform="matrix(1 0 0 -1 140 246.75)" fill="white" stroke="#0B1929" stroke-width="8"/>
<rect x="-4" y="4" width="34" height="28" rx="14" transform="matrix(1 0 0 -1 90 246.75)" fill="white" stroke="#0B1929" stroke-width="8"/>
<rect x="4" y="4" width="64" height="28" rx="14" transform="matrix(1.19249e-08 -1 -1 -1.19249e-08 73.9536 212.145)" fill="#4796F7" stroke="#0B1929" stroke-width="8"/>
<rect x="4" y="4" width="64" height="28" rx="14" transform="matrix(1.19249e-08 -1 -1 -1.19249e-08 218.046 212.145)" fill="#FF4E51" stroke="#0B1929" stroke-width="8"/>
</g>
<defs>
<filter id="filter0_i_41_669" x="126.093" y="62.5" width="119.907" height="194" filterUnits="userSpaceOnUse" color-interpolation-filters="sRGB">
<feFlood flood-opacity="0" result="BackgroundImageFix"/>
<feBlend mode="normal" in="SourceGraphic" in2="BackgroundImageFix" result="shape"/>
<feColorMatrix in="SourceAlpha" type="matrix" values="0 0 0 0 0 0 0 0 0 0 0 0 0 0 0 0 0 0 127 0" result="hardAlpha"/>
<feOffset dy="-28.4444"/>
<feComposite in2="hardAlpha" operator="arithmetic" k2="-1" k3="1"/>
<feColorMatrix type="matrix" values="0 0 0 0 0 0 0 0 0 0 0 0 0 0 0 0 0 0 0.2 0"/>
<feBlend mode="normal" in2="shape" result="effect1_innerShadow_41_669"/>
</filter>
<filter id="filter1_i_41_669" x="10" y="62.5" width="119.907" height="194" filterUnits="userSpaceOnUse" color-interpolation-filters="sRGB">
<feFlood flood-opacity="0" result="BackgroundImageFix"/>
<feBlend mode="normal" in="SourceGraphic" in2="BackgroundImageFix" result="shape"/>
<feColorMatrix in="SourceAlpha" type="matrix" values="0 0 0 0 0 0 0 0 0 0 0 0 0 0 0 0 0 0 127 0" result="hardAlpha"/>
<feOffset dy="-28.4444"/>
<feComposite in2="hardAlpha" operator="arithmetic" k2="-1" k3="1"/>
<feColorMatrix type="matrix" values="0 0 0 0 0 0 0 0 0 0 0 0 0 0 0 0 0 0 0.2 0"/>
<feBlend mode="normal" in2="shape" result="effect1_innerShadow_41_669"/>
</filter>
<filter id="filter2_i_41_669" x="0" y="198.5" width="256" height="58" filterUnits="userSpaceOnUse" color-interpolation-filters="sRGB">
<feFlood flood-opacity="0" result="BackgroundImageFix"/>
<feBlend mode="normal" in="SourceGraphic" in2="BackgroundImageFix" result="shape"/>
<feColorMatrix in="SourceAlpha" type="matrix" values="0 0 0 0 0 0 0 0 0 0 0 0 0 0 0 0 0 0 127 0" result="hardAlpha"/>
<feOffset dy="-28.4444"/>
<feComposite in2="hardAlpha" operator="arithmetic" k2="-1" k3="1"/>
<feColorMatrix type="matrix" values="0 0 0 0 0 0 0 0 0 0 0 0 0 0 0 0 0 0 0.2 0"/>
<feBlend mode="normal" in2="shape" result="effect1_innerShadow_41_669"/>
</filter>
<clipPath id="clip0_41_669">
<rect width="256" height="256" fill="white" transform="translate(0 0.5)"/>
</clipPath>
</defs>
</svg>
